# xmcd
#
# Track frame offsets:
#	150
#	12755
#	24441
#	36725
#	53790
#	66106
#	79092
#	89031
#	103489
#	121382
#	134730
#	150530
#
# Disc length: 2061 seconds
#
# Revision: 1
# Processed by: cddbd v1.5.1PL0 Copyright (c) Steve Scherf et al.
# Submitted via: audiograbber 1.83.01
#
DISCID=a8080b0c
DTITLE=Tina Rauch - Country Roots
DYEAR=2001
DGENRE=Country
TTITLE0=Cold Cold Heart
TTITLE1=Stand By Your Man
TTITLE2=Meat and Bread and Beer
TTITLE3=For The Good Times
TTITLE4=Pickin' Chicken
TTITLE5=Ages Ago
TTITLE6=He'll Have To Go
TTITLE7=On The Road Again
TTITLE8=Dark As A Dungeon
TTITLE9=Abilene
TTITLE10=Country Waltzin
TTITLE11=Beagle Tail Rag
EXTD=Tina Rauch und Gabi Posch
EXTT0=
EXTT1=
EXTT2=
EXTT3=
EXTT4=
EXTT5=
EXTT6=
EXTT7=
EXTT8=
EXTT9=
EXTT10=
EXTT11=
PLAYORDER=
